<svg width="33" height="33" viewBox="0 0 33 33" fill="none" xmlns="http://www.w3.org/2000/svg">
<path d="M10.3992 17.5029C10.3992 17.3148 10.4794 17.1239 10.6399 16.9302L18.5505 7.20996C18.7055 7.02181 18.8715 6.9056 19.0486 6.86133C19.2312 6.81706 19.3944 6.83366 19.5383 6.91113C19.6822 6.98861 19.7818 7.11312 19.8372 7.28467C19.898 7.45068 19.8814 7.65267 19.7874 7.89062L17.2224 14.7471H22.1199C22.3136 14.7471 22.4713 14.8079 22.593 14.9297C22.7203 15.0459 22.7839 15.1953 22.7839 15.3779C22.7839 15.5716 22.7065 15.7653 22.5515 15.959L14.6409 25.6709C14.4859 25.8646 14.3171 25.9836 14.1345 26.0278C13.9574 26.0721 13.797 26.0555 13.6531 25.978C13.5092 25.9006 13.4068 25.776 13.3459 25.6045C13.2906 25.4329 13.3072 25.2282 13.3958 24.9902L15.969 18.1338H11.0632C10.8751 18.1338 10.7174 18.0757 10.5901 17.9595C10.4628 17.8377 10.3992 17.6855 10.3992 17.5029Z" fill="#030F12"/>
</svg>
