<svg width="33" height="33" viewBox="0 0 33 33" fill="none" xmlns="http://www.w3.org/2000/svg">
<path d="M16.7998 25.1646C15.6156 25.1646 14.5005 24.9377 13.4546 24.4839C12.4087 24.0356 11.4873 23.4131 10.6904 22.6162C9.89355 21.8193 9.26823 20.9007 8.81445 19.8604C8.36621 18.8145 8.14209 17.6966 8.14209 16.5068C8.14209 15.3226 8.36621 14.2103 8.81445 13.1699C9.26823 12.124 9.89079 11.2026 10.6821 10.4058C11.479 9.60889 12.4004 8.98633 13.4463 8.53809C14.4922 8.08431 15.6073 7.85742 16.7915 7.85742C17.9757 7.85742 19.0908 8.08431 20.1367 8.53809C21.1882 8.98633 22.1095 9.60889 22.9009 10.4058C23.6978 11.2026 24.3231 12.124 24.7769 13.1699C25.2306 14.2103 25.4575 15.3226 25.4575 16.5068C25.4575 17.6966 25.2306 18.8145 24.7769 19.8604C24.3231 20.9007 23.6978 21.8193 22.9009 22.6162C22.1095 23.4131 21.1909 24.0356 20.145 24.4839C19.0991 24.9377 17.984 25.1646 16.7998 25.1646ZM16.7998 23.2637C17.735 23.2637 18.6094 23.0894 19.4229 22.7407C20.2419 22.3921 20.9613 21.9106 21.5811 21.2964C22.2008 20.6766 22.6851 19.96 23.0337 19.1465C23.3823 18.3275 23.5566 17.4476 23.5566 16.5068C23.5566 15.5716 23.3796 14.6973 23.0254 13.8838C22.6768 13.0648 22.1925 12.3454 21.5728 11.7256C20.9585 11.1058 20.2419 10.6216 19.4229 10.2729C18.6094 9.92432 17.7323 9.75 16.7915 9.75C15.8563 9.75 14.9792 9.92432 14.1602 10.2729C13.3467 10.6216 12.63 11.1058 12.0103 11.7256C11.396 12.3454 10.9146 13.0648 10.5659 13.8838C10.2228 14.6973 10.0513 15.5716 10.0513 16.5068C10.0513 17.4476 10.2228 18.3275 10.5659 19.1465C10.9146 19.96 11.3988 20.6766 12.0186 21.2964C12.6383 21.9106 13.355 22.3921 14.1685 22.7407C14.9875 23.0894 15.8646 23.2637 16.7998 23.2637ZM22.2285 21.9937C21.6862 22.4585 21.0941 22.8486 20.4521 23.1641C19.8158 23.485 19.1794 23.7257 18.543 23.8862C17.9066 24.0522 17.3255 24.1353 16.7998 24.1353C16.2852 24.1353 15.7069 24.0522 15.0649 23.8862C14.4285 23.7257 13.7894 23.485 13.1475 23.1641C12.5055 22.8486 11.9162 22.4585 11.3794 21.9937L11.4126 21.811C11.6174 21.4071 11.9688 21.0225 12.4668 20.6572C12.9648 20.2865 13.5819 19.9849 14.3179 19.7524C15.0539 19.52 15.8812 19.4038 16.7998 19.4038C17.7295 19.4038 18.5623 19.52 19.2983 19.7524C20.0343 19.9849 20.6486 20.2865 21.1411 20.6572C21.6392 21.0225 21.9906 21.4098 22.1953 21.8193L22.2285 21.9937ZM16.7998 18.0674C16.263 18.0618 15.7788 17.9207 15.3472 17.644C14.9155 17.3674 14.5724 16.9938 14.3179 16.5234C14.0688 16.0475 13.9416 15.5135 13.936 14.9214C13.9305 14.3625 14.055 13.8506 14.3096 13.3857C14.5697 12.9209 14.9155 12.5474 15.3472 12.2651C15.7843 11.9829 16.2686 11.8418 16.7998 11.8418C17.3366 11.8418 17.8208 11.9829 18.2524 12.2651C18.6841 12.5474 19.0272 12.9209 19.2817 13.3857C19.5418 13.8506 19.6719 14.3625 19.6719 14.9214C19.6719 15.5135 19.5446 16.0475 19.29 16.5234C19.0355 16.9993 18.6924 17.3784 18.2607 17.6606C17.8291 17.9373 17.3421 18.0729 16.7998 18.0674Z" fill="#030F12"/>
</svg>
