<svg width="48" height="49" viewBox="0 0 48 49" fill="none" xmlns="http://www.w3.org/2000/svg">
<path d="M12.2129 41.0322C11.748 40.6781 11.4658 40.2132 11.3662 39.6377C11.2666 39.0622 11.3441 38.4036 11.5986 37.6621L14.9023 27.834L6.46875 21.7744C5.82682 21.3206 5.37305 20.8337 5.10742 20.3135C4.8418 19.7822 4.80859 19.2344 5.00781 18.6699C5.19596 18.1165 5.5446 17.707 6.05371 17.4414C6.57389 17.1647 7.22135 17.0319 7.99609 17.043L18.3555 17.126L21.5098 7.23145C21.7533 6.46777 22.0798 5.88672 22.4893 5.48828C22.9098 5.07878 23.4134 4.87402 24 4.87402C24.5866 4.87402 25.0846 5.07878 25.4941 5.48828C25.9147 5.88672 26.2467 6.46777 26.4902 7.23145L29.6279 17.126L39.9873 17.043C40.7731 17.0319 41.4206 17.1647 41.9297 17.4414C42.4499 17.707 42.804 18.1221 42.9922 18.6865C43.1803 19.251 43.1416 19.7933 42.876 20.3135C42.6214 20.8337 42.1732 21.3206 41.5312 21.7744L33.0811 27.834L36.4014 37.6621C36.6559 38.4036 36.7334 39.0622 36.6338 39.6377C36.5342 40.2132 36.2464 40.6781 35.7705 41.0322C35.2946 41.3975 34.7689 41.5303 34.1934 41.4307C33.6178 41.3421 33.0091 41.0654 32.3672 40.6006L24 34.4414L15.6162 40.6006C14.9854 41.0654 14.3766 41.3421 13.79 41.4307C13.2145 41.5303 12.6888 41.3975 12.2129 41.0322Z" fill="#08B174"/>
</svg>
