<svg width="33" height="33" viewBox="0 0 33 33" fill="none" xmlns="http://www.w3.org/2000/svg">
<path d="M13.0872 11.9497H19.5452C19.7112 11.9497 19.8468 11.8944 19.952 11.7837C20.0626 11.673 20.118 11.5402 20.118 11.3853C20.118 11.2248 20.0626 11.092 19.952 10.9868C19.8468 10.8761 19.7112 10.8208 19.5452 10.8208H13.0872C12.9212 10.8208 12.7828 10.8761 12.6722 10.9868C12.567 11.092 12.5145 11.2248 12.5145 11.3853C12.5145 11.5402 12.567 11.673 12.6722 11.7837C12.7828 11.8944 12.9212 11.9497 13.0872 11.9497ZM13.0872 14.4233H16.8475C17.0135 14.4233 17.1491 14.368 17.2542 14.2573C17.3649 14.1466 17.4202 14.0111 17.4202 13.8506C17.4202 13.6956 17.3649 13.5656 17.2542 13.4604C17.1491 13.3498 17.0135 13.2944 16.8475 13.2944H13.0872C12.9212 13.2944 12.7828 13.3498 12.6722 13.4604C12.567 13.5656 12.5145 13.6956 12.5145 13.8506C12.5145 14.0111 12.567 14.1466 12.6722 14.2573C12.7828 14.368 12.9212 14.4233 13.0872 14.4233ZM13.2034 22.5H19.2049C19.9353 22.5 20.3006 22.132 20.3006 21.396V16.8638C20.3006 16.1333 19.9353 15.7681 19.2049 15.7681H13.2034C12.8548 15.7681 12.5836 15.8594 12.3899 16.042C12.1963 16.2246 12.0994 16.4985 12.0994 16.8638V21.396C12.0994 21.7557 12.1963 22.0296 12.3899 22.2178C12.5836 22.4059 12.8548 22.5 13.2034 22.5ZM8.97832 22.749V10.2729C8.97832 9.35986 9.21351 8.6626 9.68388 8.18115C10.1598 7.69971 10.8543 7.45898 11.7674 7.45898H20.6326C21.5402 7.45898 22.2319 7.69971 22.7078 8.18115C23.1837 8.6626 23.4217 9.35986 23.4217 10.2729V22.749C23.4217 23.6676 23.1837 24.3649 22.7078 24.8408C22.2319 25.3167 21.5402 25.5547 20.6326 25.5547H11.7674C10.8543 25.5547 10.1598 25.3167 9.68388 24.8408C9.21351 24.3649 8.97832 23.6676 8.97832 22.749Z" fill="#030F12"/>
</svg>
