<svg width="33" height="33" viewBox="0 0 33 33" fill="none" xmlns="http://www.w3.org/2000/svg">
<path d="M12.3164 17.6357H16.3921C16.5968 17.6357 16.7684 17.5666 16.9067 17.4282C17.0451 17.2899 17.1143 17.1183 17.1143 16.9136V11.6011C17.1143 11.3963 17.0451 11.2248 16.9067 11.0864C16.7684 10.9481 16.5968 10.8789 16.3921 10.8789C16.1929 10.8789 16.0241 10.9481 15.8857 11.0864C15.7474 11.2248 15.6782 11.3963 15.6782 11.6011V16.1997H12.3164C12.1117 16.1997 11.9373 16.2689 11.7935 16.4072C11.6551 16.5456 11.5859 16.7144 11.5859 16.9136C11.5859 17.1183 11.6551 17.2899 11.7935 17.4282C11.9373 17.5666 12.1117 17.6357 12.3164 17.6357ZM16.4004 25.1646C15.2161 25.1646 14.1011 24.9377 13.0552 24.4839C12.0093 24.0356 11.0879 23.4131 10.291 22.6162C9.49414 21.8193 8.86882 20.9007 8.41504 19.8604C7.9668 18.8145 7.74268 17.6966 7.74268 16.5068C7.74268 15.3226 7.9668 14.2103 8.41504 13.1699C8.86882 12.124 9.49137 11.2026 10.2827 10.4058C11.0796 9.60889 12.001 8.98633 13.0469 8.53809C14.0928 8.08431 15.2078 7.85742 16.3921 7.85742C17.5763 7.85742 18.6914 8.08431 19.7373 8.53809C20.7887 8.98633 21.7101 9.60889 22.5015 10.4058C23.2983 11.2026 23.9237 12.124 24.3774 13.1699C24.8312 14.2103 25.0581 15.3226 25.0581 16.5068C25.0581 17.6966 24.8312 18.8145 24.3774 19.8604C23.9237 20.9007 23.2983 21.8193 22.5015 22.6162C21.7101 23.4131 20.7915 24.0356 19.7456 24.4839C18.6997 24.9377 17.5846 25.1646 16.4004 25.1646Z" fill="#030F12"/>
</svg>
